<svg width="24" height="24" viewBox="0 0 24 24" fill="none" xmlns="http://www.w3.org/2000/svg">
<path d="M1.52246 11.9932C1.52246 13.3705 1.79375 14.7344 2.32083 16.0069C2.84792 17.2794 3.62048 18.4356 4.59441 19.4095C5.56833 20.3835 6.72455 21.156 7.99705 21.6831C9.26955 22.2102 10.6334 22.4815 12.0107 22.4815C13.3881 22.4815 14.7519 22.2102 16.0244 21.6831C17.2969 21.156 18.4531 20.3835 19.4271 19.4095C20.401 18.4356 21.1736 17.2794 21.7007 16.0069C22.2277 14.7344 22.499 13.3705 22.499 11.9932C22.499 10.6159 22.2277 9.25201 21.7007 7.97951C21.1736 6.70702 20.401 5.5508 19.4271 4.57687C18.4531 3.60294 17.2969 2.83038 16.0244 2.30329C14.7519 1.77621 13.3881 1.50492 12.0107 1.50492C10.6334 1.50492 9.26955 1.77621 7.99705 2.30329C6.72455 2.83038 5.56833 3.60294 4.59441 4.57687C3.62048 5.5508 2.84792 6.70702 2.32083 7.97951C1.79375 9.25201 1.52246 10.6159 1.52246 11.9932Z" fill="#F7931A"/>
<path d="M14.8699 12.0368L14.7518 12.0052C15.761 12.2576 16.7993 11.658 17.0707 10.6448C17.1368 10.4009 17.1541 10.1463 17.1215 9.89574C17.0889 9.64513 17.007 9.40345 16.8807 9.18458C16.7543 8.96572 16.5859 8.774 16.3852 8.62044C16.1845 8.46689 15.9554 8.35454 15.7111 8.28984L14.8584 8.06133L15.3651 6.17016L14.1494 5.84438L13.6427 7.73555L12.668 7.47445L13.1756 5.58L11.958 5.25375L11.4504 7.1482L9.2189 6.55031L8.86382 7.8757L10.4173 8.29195L8.79304 14.3536L7.2396 13.9373L6.88452 15.2627L9.11601 15.8606L8.59101 17.82L9.80858 18.1462L10.3336 16.1869L11.3083 16.448L10.7836 18.4066L11.9993 18.7324L12.5241 16.7737L13.5288 17.043C14.9133 17.4141 16.3371 16.5921 16.7081 15.2074C17.0791 13.8227 16.2544 12.4078 14.8699 12.0368ZM12.4207 8.78367L13.2987 9.01898L13.8811 9.17508C14.1173 9.23836 14.3105 9.36258 14.4623 9.53906C14.7288 9.82758 14.8427 10.2471 14.734 10.6523C14.6255 11.0576 14.317 11.3641 13.942 11.4806C13.7224 11.5575 13.4932 11.5685 13.2567 11.5052L12.6743 11.3491L11.7963 11.1138L12.4207 8.78367ZM12.9492 15.1868C12.9216 15.1884 12.9047 15.184 12.8794 15.1772L11.7312 14.8695L10.8532 14.6341L11.4776 12.304L12.3555 12.5393L13.5037 12.847C13.5291 12.8538 13.5459 12.8583 13.5691 12.8735C14.1701 13.0617 14.5219 13.7079 14.3566 14.3243C14.1914 14.9407 13.5637 15.3244 12.9492 15.1868Z" fill="white"/>
</svg>
