<svg width="24" height="24" viewBox="0 0 24 24" fill="none" xmlns="http://www.w3.org/2000/svg">
<path d="M1.57129 12.0035C1.57129 14.7852 2.6763 17.4529 4.64324 19.4199C6.61017 21.3868 9.2779 22.4918 12.0596 22.4918C14.8412 22.4918 17.509 21.3868 19.4759 19.4199C21.4428 17.4529 22.5479 14.7852 22.5479 12.0035C22.5479 9.22185 21.4428 6.55412 19.4759 4.58718C17.509 2.62025 14.8412 1.51524 12.0596 1.51524C9.2779 1.51524 6.61017 2.62025 4.64324 4.58718C2.6763 6.55412 1.57129 9.22185 1.57129 12.0035Z" fill="#48A3FF"/>
<path d="M16.8752 12.2742L12.0595 14.9569L7.24377 12.2742L7.26604 12.2339L12.0595 4.20328L16.8482 12.2294L16.8752 12.2742Z" fill="white"/>
<path d="M16.8708 13.1639L16.8483 13.1953L12.0595 19.804L7.2661 13.1909L7.24829 13.1639L7.2661 13.1773L12.0595 16.0256L16.8483 13.1773L16.8708 13.1639Z" fill="white"/>
<path d="M16.8752 12.2742L12.0595 14.9569L7.24377 12.2742L7.26604 12.2339L12.0595 10.0608L16.8482 12.2295L16.8752 12.2742Z" fill="white"/>
<path opacity="0.8" d="M16.8753 12.2742L12.0596 14.9569V4.20328L16.8483 12.2294L16.8753 12.2742Z" fill="white"/>
<path d="M16.8708 13.1639L16.8483 13.1953L12.0596 19.804V16.0256L16.8483 13.1773L16.8708 13.1639Z" fill="white"/>
</svg>
