<svg width="128" height="128" viewBox="0 0 128 128" fill="none" xmlns="http://www.w3.org/2000/svg">
<g clip-path="url(#clip0_356_135)">
<circle cx="64" cy="64" r="64" fill="url(#paint0_linear_356_135)"/>
<path fill-rule="evenodd" clip-rule="evenodd" d="M18 37C17.8333 45.6667 19.6383 64.9599 28 73C35.7974 80.4975 44.1223 81.5071 50.7308 82.3085C55.1401 82.8433 58.7853 83.2853 61 85.5C62.5 87 63.5 89.5 63.5 90V128H71V91.5C71.6667 89.8333 73.5 86.4 75.5 86C76.2804 85.8439 77.4163 85.8942 78.8485 85.9575C82.0045 86.0971 86.5993 86.3002 92 84.5C98 82.5 100.5 80 104 75C105.792 72.4406 108.5 61 109.5 55.5C106 56.3333 97.9 58 93.5 58C88 58 82.5 58 78 61.5C74.4 64.3 71.5 70.5 70 74C70 69 68.2347 57.7347 59 48.5C53.963 43.463 48.4083 43.086 42.8946 42.7119C40.7458 42.566 38.6032 42.4206 36.5 42C30.5 40.8 21.6667 38.1667 18 37ZM70 74C71.6876 73.2768 74.1889 72.0885 76.6071 70.9398C79.2041 69.7061 81.7054 68.5178 83 68C86.2971 66.6811 90.6814 65.7247 94.719 64.8438C96.8043 64.3889 98.7971 63.9541 100.5 63.5C100.147 63.6486 99.727 63.8233 99.2515 64.021C95.4595 65.598 88.1535 68.6363 83.5 71.5C79.644 73.8729 75.788 78.5334 72.9758 81.9322C71.0476 84.2627 69.6101 86 69 86C67.8983 86 67.2012 84.1121 66.6116 82.5152C66.3983 81.9377 66.1992 81.3983 66 81C64 77 56.6979 68.7095 50 63.5C45.5 60 35.5 54.3333 29.5 51C33.3333 52 42.8 55 50 59C57.2 63 66.3333 70.6667 70 74Z" fill="white"/>
</g>
<defs>
<linearGradient id="paint0_linear_356_135" x1="-3.04077e-07" y1="61" x2="128" y2="61" gradientUnits="userSpaceOnUse">
<stop stop-color="#B98B2E"/>
<stop offset="0.516709" stop-color="#F6D11C"/>
<stop offset="1" stop-color="#F7941E"/>
</linearGradient>
<clipPath id="clip0_356_135">
<rect width="128" height="128" fill="white"/>
</clipPath>
</defs>
</svg>
